#!OML:ASF F:\VICON\USERDATA\INSTALL\rory3\rory3.ASF
:FULLY-SPECIFIED
:DEGREES
652
root 0.847457 20.682 0.985163 25.2631 -3.80643 -4.98871
lowerback 7.24695 0.336964 0.960632
upperback -0.850089 0.621773 1.78085
thorax -4.96104 0.305879 1.23827
lowerneck -10.3159 -1.24154 -4.27381
upperneck 27.4878 -1.40278 1.98587
head 10.5392 -0.858227 1.27593
rclavicle -2.5842e-015 1.82882e-014
rhumerus -40.0436 11.034 -87.9462
rradius 29.7289
rwrist 17.1866
rhand -21.5106 -50.633
rfingers 7.12502
rthumb 4.88134 -440.557
lclavicle -2.5842e-015 1.82882e-014
lhumerus -41.0784 -30.8482 88.0089
lradius 37.3233
lwrist -0.0388703
lhand -35.6754 -40.4913
lfingers 7.12502
lthumb -8.79657 -10.6947
rfemur -53.9304 1.71371 23.0821
rtibia 54.1387
rfoot 7.4139 3.01818
rtoes -26.4441
lfemur -53.5693 1.96454 -13.7926
ltibia 48.1091
lfoot 11.3288 -2.6242
ltoes -16.4001
653
root 0.872443 20.4117 0.98761 24.8398 -3.29425 -5.93232
lowerback 7.35176 0.322104 2.33993
upperback -0.827946 0.735227 1.92839
thorax -4.98501 0.325655 0.60342
lowerneck -10.7557 -1.45471 -4.46217
upperneck 28.1199 -1.78304 2.46173
head 10.8828 -0.997682 1.43705
rclavicle 5.11871e-015 1.14301e-014
rhumerus -39.0432 11.0272 -88.0591
rradius 29.663
rwrist 15.9969
rhand -21.9307 -53.1344
rfingers 7.12502
rthumb 4.47565 -443.067
lclavicle 5.11871e-015 1.14301e-014
lhumerus -39.3597 -31.2451 87.7492
lradius 37.0756
lwrist 0.140517
lhand -34.9338 -40.6999
lfingers 7.12502
lthumb -8.08085 -10.8744
rfemur -51.9954 1.80645 24.2247
rtibia 51.3268
rfoot 6.5052 1.70006
rtoes -26.1978
lfemur -52.3454 0.894267 -11.9275
ltibia 47.1503
lfoot 11.3913 -1.7063
ltoes -16.7086
654
root 0.879834 20.1107 1.01703 24.9293 -3.40639 -6.38451
lowerback 6.42847 0.450548 2.69215
upperback -0.897165 0.902109 1.94313
thorax -4.52915 0.402895 0.409132
lowerneck -11.0276 -1.49109 -4.25162
upperneck 28.853 -1.84509 2.3358
head 11.2156 -1.02171 1.35214
rclavicle -1.6201e-014 -1.27222e-014
rhumerus -37.8504 10.5097 -87.6468
rradius 28.8524
rwrist 15.6862
rhand -22.5926 -49.2677
rfingers 7.12502
rthumb 3.83651 -439.213
lclavicle -1.6201e-014 -1.27222e-014
lhumerus -37.7511 -30.9306 87.302
lradius 36.7579
lwrist -0.81405
lhand -34.0749 -40.1248
lfingers 7.12502
lthumb -7.25184 -10.269
rfemur -51.025 2.6234 24.4049
rtibia 49.2402
rfoot 6.58744 0.35186
rtoes -26.3009
lfemur -51.725 0.342118 -10.9509
ltibia 46.7443
lfoot 11.5616 -0.94936
ltoes -16.6589
655
root 0.906427 19.8517 1.09067 25.1474 -2.92517 -6.76335
lowerback 4.38882 0.346036 3.72972
upperback -0.789525 0.728282 1.88856
thorax -3.25599 0.309328 -0.196903
lowerneck -11.5314 -1.55767 -4.09351
upperneck 29.186 -2.00936 2.49612
head 11.4519 -1.05856 1.36307
rclavicle 6.26172e-015 2.24627e-014
rhumerus -36.6199 9.27851 -86.7173
rradius 27.2815
rwrist 17.9651
rhand -24.6245 -39.9111
rfingers 7.12502
rthumb 1.87418 -429.883
lclavicle 6.26172e-015 2.24627e-014
lhumerus -36.1726 -30.5601 86.7807
lradius 36.4525
lwrist -1.79378
lhand -33.1113 -38.9646
lfingers 7.12502
lthumb -6.32163 -9.07896
rfemur -49.9563 2.38044 24.7832
rtibia 47.5134
rfoot 6.20575 -0.446612
rtoes -26.5529
lfemur -51.1155 -0.3301 -10.2495
ltibia 46.6656
lfoot 11.7975 -0.671311
ltoes -16.7207
